HIERARCHY
ROOT Hips
{
	OFFSET 0.000000 0.000000 0.000000
	CHANNELS 6 Xposition Yposition Zposition Zrotation Yrotation Xrotation 
	JOINT LeftUpLeg_virtual
	{
		OFFSET 0.000000 0.000000 0.000000
		CHANNELS 3 Zrotation Yrotation Xrotation
		JOINT LeftUpLeg
		{
			OFFSET 10.205400 -3.823500 0.155100
			CHANNELS 3 Zrotation Yrotation Xrotation
			JOINT LeftLeg
			{
				OFFSET 0.708757 -12.982077 0.567790
				CHANNELS 3 Zrotation Yrotation Xrotation
				JOINT LeftFoot
				{
					OFFSET -0.708756 -10.717838 -2.184338
					CHANNELS 3 Zrotation Yrotation Xrotation
					JOINT LeftToeBase
					{
						OFFSET 0.108149 -7.191104 7.560241
						CHANNELS 3 Zrotation Yrotation Xrotation
						End Site
						{
							OFFSET 0.000000 0.000000 0.000000
						}
					}
				}
			}
		}
	}
	JOINT RightUpLeg_virtual
	{
		OFFSET 0.000000 0.000000 0.000000
		CHANNELS 3 Zrotation Yrotation Xrotation
		JOINT RightUpLeg
		{
			OFFSET -10.205400 -3.823500 0.005500
			CHANNELS 3 Zrotation Yrotation Xrotation
			JOINT RightLeg
			{
				OFFSET -0.708756 -12.982134 0.610632
				CHANNELS 3 Zrotation Yrotation Xrotation
				JOINT RightFoot
				{
					OFFSET 0.708754 -10.717769 -1.945823
					CHANNELS 3 Zrotation Yrotation Xrotation
					JOINT RightToeBase
					{
						OFFSET -0.108140 -7.191069 7.372968
						CHANNELS 3 Zrotation Yrotation Xrotation
						End Site
						{
							OFFSET 0.000000 0.000000 0.000000
						}
					}
				}
			}
		}
	}
	JOINT Spine_virtual
	{
		OFFSET 0.000000 0.000000 0.000000
		CHANNELS 3 Zrotation Yrotation Xrotation
		JOINT Spine
		{
			OFFSET 0.000000 6.876099 0.125700
			CHANNELS 3 Zrotation Yrotation Xrotation
			JOINT Spine1
			{
				OFFSET 0.000000 8.022060 0.146608
				CHANNELS 3 Zrotation Yrotation Xrotation
				JOINT Spine2
				{
					OFFSET 0.000000 9.168068 0.167552
					CHANNELS 3 Zrotation Yrotation Xrotation
					JOINT Neck_virtual
					{
						OFFSET 0.000000 0.000000 0.000000
						CHANNELS 3 Zrotation Yrotation Xrotation
						JOINT Neck
						{
							OFFSET 0.000000 10.314075 0.188496
							CHANNELS 3 Zrotation Yrotation Xrotation
							JOINT Head
							{
								OFFSET 0.000000 7.643700 -2.377400
								CHANNELS 3 Zrotation Yrotation Xrotation
								End Site
								{
									OFFSET 0.000000 0.000000 0.000000
								}
							}
						}
					}
					JOINT LeftShoulder_virtual
					{
						OFFSET 0.000000 0.000000 0.000000
						CHANNELS 3 Zrotation Yrotation Xrotation
						JOINT LeftShoulder
						{
							OFFSET 4.392200 8.824978 0.174984
							CHANNELS 3 Zrotation Yrotation Xrotation
							JOINT LeftArm
							{
								OFFSET 8.771219 -2.981674 -0.026999
								CHANNELS 3 Zrotation Yrotation Xrotation
								JOINT LeftForeArm
								{
									OFFSET 8.512804 0.000000 -0.000000
									CHANNELS 3 Zrotation Yrotation Xrotation
									JOINT LeftHand
									{
										OFFSET 18.484802 0.000000 -0.000000
										CHANNELS 3 Zrotation Yrotation Xrotation
										End Site
										{
											OFFSET 0.000000 0.000000 0.000000
										}
									}
								}
							}
						}
					}
					JOINT RightShoulder_virtual
					{
						OFFSET 0.000000 0.000000 0.000000
						CHANNELS 3 Zrotation Yrotation Xrotation
						JOINT RightShoulder
						{
							OFFSET -4.392200 8.824993 0.141379
							CHANNELS 3 Zrotation Yrotation Xrotation
							JOINT RightArm
							{
								OFFSET -8.771282 -2.981682 -0.094208
								CHANNELS 3 Zrotation Yrotation Xrotation
								JOINT RightForeArm
								{
									OFFSET -8.494598 0.000000 0.000000
									CHANNELS 3 Zrotation Yrotation Xrotation
									JOINT RightHand
									{
										OFFSET -18.483803 0.000000 0.000001
										CHANNELS 3 Zrotation Yrotation Xrotation
										End Site
										{
											OFFSET 0.000000 0.000000 0.000000
										}
									}
								}
							}
						}
					}
				}
			}
		}
	}
}
MOTION
Frames: 8
Frame Time: 0.033333
-1.477513 18.820801 3.280401 -179.934025 14.918088 179.865737 7.093577 -1.718525 6.451074 -4.185460 -4.983604 -97.693862 13.119155 -13.687983 117.880322 -22.830247 -7.653906 -6.909336 0.000000 0.000000 0.000000 9.282061 2.769646 8.056803 -22.226018 -1.469369 -43.111690 -10.590169 0.460288 127.875512 -0.909808 24.239329 -7.363690 0.000000 0.000000 0.000000 9.966786 2.390189 1.736217 4.678168 3.060857 1.973837 -0.132767 -5.686122 6.793670 -0.047236 0.115499 -0.007840 -0.167986 -4.214669 11.353678 -2.306357 -8.362419 14.958867 0.000000 0.000000 0.000000 1.785804 -3.600973 7.274295 -3.175400 -4.598973 -1.406078 -11.769274 -24.751513 -36.037280 -165.269773 -71.531854 -178.867874 0.000000 0.000000 0.000000 -2.910902 -1.887235 6.654494 28.609955 18.712102 -4.509299 24.461660 15.593858 -22.862872 179.645778 58.229439 169.957127 0.000000 0.000000 0.000000 
-1.119497 18.875261 4.034890 -179.827816 14.137406 179.645163 7.062788 -1.756926 6.516701 -3.295748 -4.300370 -98.266649 12.840954 -13.973785 115.373780 -24.722291 -6.801843 -6.108814 0.000000 0.000000 0.000000 9.628780 3.500591 8.745270 -21.988848 -2.924258 -45.412982 -7.987794 0.612647 128.276280 0.645669 27.513648 -6.658345 0.000000 0.000000 0.000000 9.911748 2.809698 2.863392 4.378122 2.215062 2.543425 -0.107727 -5.530233 7.055655 -0.038210 0.085887 -0.100008 -0.155452 -3.978089 11.518177 -2.492689 -8.504264 14.825600 0.000000 0.000000 0.000000 1.896110 -3.337440 7.405401 -3.110680 -4.610317 -1.645570 -12.751473 -26.023811 -35.663922 -166.337646 -71.309183 -177.523652 0.000000 0.000000 0.000000 -3.027355 -1.558762 6.802562 27.742849 18.201428 -5.372954 22.877423 15.820028 -24.485750 179.696608 58.432337 170.479828 0.000000 0.000000 0.000000 
-0.702903 18.941656 4.597142 -179.867841 13.408198 179.605288 7.004992 -1.919715 6.590529 -2.564960 -3.719870 -98.873798 12.832936 -13.839457 113.380444 -23.823503 -6.113028 -5.831399 0.000000 0.000000 0.000000 9.850053 4.070555 9.279008 -21.408962 -4.371613 -47.511865 -7.010189 0.526668 128.904958 1.180026 29.294978 -5.748655 0.000000 0.000000 0.000000 9.690331 3.185471 3.623722 3.977041 1.381111 2.936341 -0.093398 -5.337799 7.314946 -0.039070 0.095728 -0.041981 -0.153573 -3.797467 11.731839 -2.705036 -8.681614 14.671893 0.000000 0.000000 0.000000 2.094616 -3.034272 7.571283 -3.008492 -4.778103 -1.824653 -13.628760 -27.010401 -35.049949 -167.349689 -71.293050 -176.244398 0.000000 0.000000 0.000000 -3.082332 -1.329952 6.855496 26.995414 17.802410 -6.152843 21.641982 16.145012 -25.387694 179.706512 58.937566 170.886880 0.000000 0.000000 0.000000 
-0.252584 19.008873 5.004125 -179.641748 12.882792 179.531044 7.167458 -1.721797 6.940007 -1.837870 -3.302557 -99.381383 12.887082 -13.579360 111.953282 -22.433901 -5.381486 -5.694899 0.000000 0.000000 0.000000 10.404628 4.397800 9.716357 -20.328337 -5.573466 -49.384324 -6.925382 0.459325 129.495537 0.830053 29.785038 -4.952113 0.000000 0.000000 0.000000 9.577226 3.565295 4.344990 3.666370 0.733769 3.279246 -0.016357 -5.061612 7.518497 -0.082043 0.221718 -0.115978 -0.137983 -3.625222 11.920577 -2.869806 -8.844791 14.594333 0.000000 0.000000 0.000000 2.097397 -2.973250 7.650163 -2.926929 -4.893121 -1.983686 -14.236194 -27.565184 -34.455176 -168.141895 -71.173167 -175.260236 0.000000 0.000000 0.000000 -3.185740 -1.165335 6.876798 26.409678 17.374946 -6.616087 20.714849 16.332984 -25.837301 179.801602 59.275401 171.318479 0.000000 0.000000 0.000000 
0.246341 19.061998 5.293719 -179.751140 12.111341 179.457647 7.160349 -1.740528 7.541324 -1.448707 -2.793908 -99.864906 12.920387 -13.220108 110.915695 -21.274391 -4.724337 -5.688886 0.000000 0.000000 0.000000 10.477240 4.221966 10.325871 -18.902796 -6.414920 -51.110958 -8.652500 -0.018505 130.297470 -0.728707 28.937353 -4.602279 0.000000 0.000000 0.000000 9.151850 3.740275 5.028293 3.205176 0.108033 3.461900 0.002398 -4.948943 7.702572 0.001227 0.147321 -0.124027 -0.201919 -3.300262 12.041182 -3.044639 -9.147216 14.525811 0.000000 0.000000 0.000000 2.265616 -2.649853 7.712884 -3.059080 -4.873393 -2.036194 -14.911450 -27.888089 -33.919119 -169.017730 -71.370115 -174.250229 0.000000 0.000000 0.000000 -3.200399 -0.774315 6.870107 25.899987 17.157688 -6.930182 19.945336 16.573920 -25.892998 179.753285 59.623870 171.563178 0.000000 0.000000 0.000000 
0.754403 19.096884 5.517194 -179.721169 11.482409 179.119293 7.238798 -1.633917 8.397174 -1.136591 -2.317731 -100.455595 12.935807 -12.997515 110.149313 -20.233271 -4.033766 -5.895924 0.000000 0.000000 0.000000 10.525806 4.135691 11.478364 -17.796466 -6.592849 -52.583553 -10.982907 -0.735255 130.848885 -1.611622 28.399442 -3.832562 0.000000 0.000000 0.000000 8.852123 3.776876 6.236690 2.806916 -0.323358 3.509789 0.063519 -4.726790 7.586981 -0.065538 0.212976 0.006327 -0.142676 -3.111701 11.906125 -3.118585 -9.086788 14.458819 0.000000 0.000000 0.000000 2.258408 -2.463092 7.843794 -3.050924 -4.926253 -2.121937 -15.164828 -27.862075 -33.725879 -169.827326 -71.143353 -173.393832 0.000000 0.000000 0.000000 -3.240995 -0.587704 7.044420 25.530219 16.799573 -7.239410 19.436186 16.839558 -25.818067 179.870108 59.742230 171.932063 0.000000 0.000000 0.000000 
1.240637 19.132772 5.724925 -179.838635 10.920998 179.073599 7.254209 -1.691687 9.309313 -1.368827 -1.594076 -101.131565 12.979072 -12.791524 109.630677 -19.519011 -3.333642 -6.377670 0.000000 0.000000 0.000000 10.711644 4.065595 12.368274 -15.682794 -7.855145 -54.181859 -11.757579 -0.797160 131.219122 -3.053442 27.129291 -4.017311 0.000000 0.000000 0.000000 8.471212 4.149332 7.065041 2.500383 -0.655479 3.467513 0.013546 -4.617132 7.825693 -0.128723 0.179949 -0.181347 -0.155048 -3.379072 11.862936 -3.204874 -9.294568 14.532918 0.000000 0.000000 0.000000 2.273155 -2.325927 7.652393 -3.022449 -5.162581 -2.169593 -15.564138 -27.887633 -33.406394 -169.872556 -71.371440 -173.311911 0.000000 0.000000 0.000000 -3.151157 -0.545858 6.761729 25.305933 16.565813 -7.178437 18.897040 16.951300 -25.866003 179.692988 60.260860 171.996990 0.000000 0.000000 0.000000 
1.685289 19.170164 5.888599 -179.933957 10.484659 179.025706 7.303871 -1.762463 10.185246 -2.141546 -0.514466 -101.796709 13.051728 -12.686032 109.326323 -19.169223 -2.681045 -6.965722 0.000000 0.000000 0.000000 11.004628 4.129585 13.456443 -13.879637 -9.127493 -55.700534 -11.757606 -1.062862 131.364017 -3.711360 26.007081 -3.993466 0.000000 0.000000 0.000000 8.199206 4.132998 7.946620 1.988464 -0.747483 3.340081 0.031137 -4.526152 7.946647 0.094759 0.155446 -0.214766 -0.273217 -3.023642 11.932278 -3.162201 -9.380409 14.415978 0.000000 0.000000 0.000000 2.493299 -2.154339 7.605206 -3.315911 -5.229757 -1.928086 -16.432540 -27.967804 -33.226388 -170.676291 -71.446982 -172.534840 0.000000 0.000000 0.000000 -3.239462 -0.358405 6.666195 25.099998 16.503330 -7.234552 18.318385 16.992616 -26.195934 179.512685 60.900002 172.049118 0.000000 0.000000 0.000000 
